# xmcd
#
# Track frame offsets:
#	150
#	16045
#	40840
#	62976
#	83377
#	107533
#	123745
#	148381
#	162806
#	186065
#	201242
#	223702
#	244677
#	260448
#
# Disc length: 3673 seconds
#
# Revision: 0
# Processed by: cddbd v1.4PL0 Copyright (c) Steve Scherf et al.
# Submitted via: dBpowerAMP V4.0
#
DISCID=c20e570e
DTITLE=B. B. King  - Blues on the Bayou
DYEAR=1900
DGENRE=
TTITLE0=Blues Boys Tune
TTITLE1=Bad Case of Love
TTITLE2=I'll survive
TTITLE3=Mean Ole' World
TTITLE4=Blues Man
TTITLE5=Broken Promise
TTITLE6=Darlin' What Happened
TTITLE7=Shake It Up And Go
TTITLE8=BLues We Like
TTITLE9=Good Man Gone Bad
TTITLE10=If I Lost You
TTITLE11=Tell Me Baby
TTITLE12=I Got Some Outside Help I Don't Need
TTITLE13=Blues In "G"
EXTD=
EXTT0=
EXTT1=
EXTT2=
EXTT3=
EXTT4=
EXTT5=
EXTT6=
EXTT7=
EXTT8=
EXTT9=
EXTT10=
EXTT11=
EXTT12=
EXTT13=
PLAYORDER=
